<svg xmlns="http://www.w3.org/2000/svg" viewBox="0 0 720 280" role="img" aria-label="Felis-AI cover">
  <defs>
    <linearGradient id="bg" x1="0" y1="0" x2="1" y2="1">
      <stop offset="0" stop-color="#141230"/><stop offset="1" stop-color="#131c31"/>
    </linearGradient>
    <linearGradient id="ac" x1="0" y1="0" x2="1" y2="0">
      <stop offset="0" stop-color="#a78bfa"/><stop offset="1" stop-color="#4f8cff"/>
    </linearGradient>
    <pattern id="grid" width="40" height="40" patternUnits="userSpaceOnUse">
      <path d="M40 0H0V40" fill="none" stroke="rgba(167,139,250,.07)"/>
    </pattern>
    <radialGradient id="glow" cx=".78" cy=".35" r=".6">
      <stop offset="0" stop-color="rgba(167,139,250,.24)"/><stop offset="1" stop-color="rgba(167,139,250,0)"/>
    </radialGradient>
  </defs>
  <rect width="720" height="280" fill="url(#bg)"/>
  <rect width="720" height="280" fill="url(#grid)"/>
  <rect width="720" height="280" fill="url(#glow)"/>

  <g stroke="rgba(167,139,250,.4)" stroke-width="1.5">
    <line x1="470" y1="70" x2="540" y2="115"/>
    <line x1="470" y1="200" x2="540" y2="155"/>
    <line x1="445" y1="135" x2="540" y2="135"/>
  </g>
  <circle cx="470" cy="70" r="7" fill="#a78bfa" opacity=".8"/>
  <circle cx="445" cy="135" r="5" fill="#4f8cff" opacity=".8"/>
  <circle cx="470" cy="200" r="7" fill="#38d9c3" opacity=".8"/>

  <g>
    <path d="M556,86 L572,62 L584,86 Z" fill="url(#ac)"/>
    <path d="M636,86 L648,62 L664,86 Z" fill="url(#ac)"/>
    <rect x="540" y="80" width="140" height="96" rx="22" fill="url(#ac)"/>
    <circle cx="583" cy="122" r="8" fill="#141230"/>
    <circle cx="637" cy="122" r="8" fill="#141230"/>
    <path d="M602,146 L610,153 L618,146" fill="none" stroke="#141230" stroke-width="4" stroke-linecap="round" stroke-linejoin="round"/>
    <path d="M566,176 L560,196 L588,176 Z" fill="url(#ac)"/>
  </g>

  <text x="44" y="192" font-family="Consolas, 'JetBrains Mono', monospace" font-size="13" letter-spacing="3" fill="#a78bfa">EXPERIMENTAL AI ASSISTANT</text>
  <text x="42" y="230" font-family="'Segoe UI', 'Inter', sans-serif" font-size="34" font-weight="700" fill="#dbe4f5">Felis-AI</text>
  <rect x="44" y="244" width="64" height="4" rx="2" fill="url(#ac)"/>
</svg>
