<svg xmlns="http://www.w3.org/2000/svg" viewBox="0 0 720 280" role="img" aria-label="Website Builder cover">
  <defs>
    <linearGradient id="bg" x1="0" y1="0" x2="1" y2="1">
      <stop offset="0" stop-color="#101430"/><stop offset="1" stop-color="#131c31"/>
    </linearGradient>
    <linearGradient id="ac" x1="0" y1="0" x2="1" y2="0">
      <stop offset="0" stop-color="#4f8cff"/><stop offset="1" stop-color="#a78bfa"/>
    </linearGradient>
    <pattern id="grid" width="40" height="40" patternUnits="userSpaceOnUse">
      <path d="M40 0H0V40" fill="none" stroke="rgba(79,140,255,.07)"/>
    </pattern>
    <radialGradient id="glow" cx=".75" cy=".4" r=".6">
      <stop offset="0" stop-color="rgba(79,140,255,.2)"/><stop offset="1" stop-color="rgba(79,140,255,0)"/>
    </radialGradient>
  </defs>
  <rect width="720" height="280" fill="url(#bg)"/>
  <rect width="720" height="280" fill="url(#grid)"/>
  <rect width="720" height="280" fill="url(#glow)"/>

  <g>
    <rect x="455" y="45" width="220" height="175" rx="12" fill="#0e1526" stroke="rgba(79,140,255,.45)" stroke-width="2.5"/>
    <rect x="455" y="45" width="220" height="30" rx="12" fill="rgba(79,140,255,.14)"/>
    <rect x="455" y="63" width="220" height="12" fill="#0e1526"/>
    <circle cx="474" cy="60" r="4" fill="#ff5f57"/>
    <circle cx="488" cy="60" r="4" fill="#febc2e"/>
    <circle cx="502" cy="60" r="4" fill="#28c840"/>
    <rect x="470" y="88" width="190" height="22" rx="5" fill="url(#ac)" opacity=".85"/>
    <rect x="470" y="120" width="58" height="82" rx="5" fill="rgba(79,140,255,.16)" stroke="rgba(79,140,255,.4)"/>
    <rect x="538" y="120" width="122" height="36" rx="5" fill="rgba(167,139,250,.16)" stroke="rgba(167,139,250,.4)"/>
    <rect x="538" y="166" width="122" height="36" rx="5" fill="none" stroke="url(#ac)" stroke-width="2" stroke-dasharray="6 5"/>
  </g>
  <g transform="translate(640,196)">
    <path d="M0,0 L0,20 L5,15 L9,24 L13,22 L9,13 L16,13 Z" fill="#dbe4f5"/>
  </g>

  <text x="44" y="192" font-family="Consolas, 'JetBrains Mono', monospace" font-size="13" letter-spacing="3" fill="#a78bfa">RAPID SITE TOOLING</text>
  <text x="42" y="230" font-family="'Segoe UI', 'Inter', sans-serif" font-size="34" font-weight="700" fill="#dbe4f5">Website Builder</text>
  <rect x="44" y="244" width="64" height="4" rx="2" fill="url(#ac)"/>
</svg>
